<svg xmlns="http://www.w3.org/2000/svg" width="122.584" height="133.449" viewBox="0 0 122.584 133.449">
  <g id="Dots" transform="translate(-817.113 152.362)">
    <g id="Group_105" data-name="Group 105" transform="translate(817.113 -152.362)">
      <circle id="Ellipse_123" data-name="Ellipse 123" cx="1.453" cy="1.453" r="1.453" fill="#7c7d7f"/>
      <circle id="Ellipse_124" data-name="Ellipse 124" cx="1.453" cy="1.453" r="1.453" transform="translate(0 26.108)" fill="#7c7d7f"/>
      <circle id="Ellipse_125" data-name="Ellipse 125" cx="1.453" cy="1.453" r="1.453" transform="translate(0 52.217)" fill="#7c7d7f"/>
      <circle id="Ellipse_126" data-name="Ellipse 126" cx="1.453" cy="1.453" r="1.453" transform="translate(0 78.325)" fill="#7c7d7f"/>
      <circle id="Ellipse_127" data-name="Ellipse 127" cx="1.453" cy="1.453" r="1.453" transform="translate(0 104.434)" fill="#7c7d7f"/>
      <circle id="Ellipse_128" data-name="Ellipse 128" cx="1.453" cy="1.453" r="1.453" transform="translate(0 130.542)" fill="#7c7d7f"/>
    </g>
    <g id="Group_106" data-name="Group 106" transform="translate(841.048 -152.362)">
      <circle id="Ellipse_129" data-name="Ellipse 129" cx="1.453" cy="1.453" r="1.453" fill="#7c7d7f"/>
      <circle id="Ellipse_130" data-name="Ellipse 130" cx="1.453" cy="1.453" r="1.453" transform="translate(0 26.108)" fill="#7c7d7f"/>
      <circle id="Ellipse_131" data-name="Ellipse 131" cx="1.453" cy="1.453" r="1.453" transform="translate(0 52.217)" fill="#7c7d7f"/>
      <circle id="Ellipse_132" data-name="Ellipse 132" cx="1.453" cy="1.453" r="1.453" transform="translate(0 78.325)" fill="#7c7d7f"/>
      <circle id="Ellipse_133" data-name="Ellipse 133" cx="1.453" cy="1.453" r="1.453" transform="translate(0 104.434)" fill="#7c7d7f"/>
      <circle id="Ellipse_134" data-name="Ellipse 134" cx="1.453" cy="1.453" r="1.453" transform="translate(0 130.542)" fill="#7c7d7f"/>
    </g>
    <g id="Group_107" data-name="Group 107" transform="translate(864.984 -152.362)">
      <circle id="Ellipse_135" data-name="Ellipse 135" cx="1.453" cy="1.453" r="1.453" fill="#7c7d7f"/>
      <circle id="Ellipse_136" data-name="Ellipse 136" cx="1.453" cy="1.453" r="1.453" transform="translate(0 26.108)" fill="#7c7d7f"/>
      <circle id="Ellipse_137" data-name="Ellipse 137" cx="1.453" cy="1.453" r="1.453" transform="translate(0 52.217)" fill="#7c7d7f"/>
      <circle id="Ellipse_138" data-name="Ellipse 138" cx="1.453" cy="1.453" r="1.453" transform="translate(0 78.325)" fill="#7c7d7f"/>
      <circle id="Ellipse_139" data-name="Ellipse 139" cx="1.453" cy="1.453" r="1.453" transform="translate(0 104.434)" fill="#7c7d7f"/>
      <circle id="Ellipse_140" data-name="Ellipse 140" cx="1.453" cy="1.453" r="1.453" transform="translate(0 130.542)" fill="#7c7d7f"/>
    </g>
    <g id="Group_108" data-name="Group 108" transform="translate(888.919 -152.362)">
      <circle id="Ellipse_141" data-name="Ellipse 141" cx="1.453" cy="1.453" r="1.453" fill="#7c7d7f"/>
      <circle id="Ellipse_142" data-name="Ellipse 142" cx="1.453" cy="1.453" r="1.453" transform="translate(0 26.108)" fill="#7c7d7f"/>
      <circle id="Ellipse_143" data-name="Ellipse 143" cx="1.453" cy="1.453" r="1.453" transform="translate(0 52.217)" fill="#7c7d7f"/>
      <circle id="Ellipse_144" data-name="Ellipse 144" cx="1.453" cy="1.453" r="1.453" transform="translate(0 78.325)" fill="#7c7d7f"/>
      <circle id="Ellipse_145" data-name="Ellipse 145" cx="1.453" cy="1.453" r="1.453" transform="translate(0 104.434)" fill="#7c7d7f"/>
      <circle id="Ellipse_146" data-name="Ellipse 146" cx="1.453" cy="1.453" r="1.453" transform="translate(0 130.542)" fill="#7c7d7f"/>
    </g>
    <g id="Group_109" data-name="Group 109" transform="translate(912.855 -152.362)">
      <circle id="Ellipse_147" data-name="Ellipse 147" cx="1.453" cy="1.453" r="1.453" fill="#7c7d7f"/>
      <circle id="Ellipse_148" data-name="Ellipse 148" cx="1.453" cy="1.453" r="1.453" transform="translate(0 26.108)" fill="#7c7d7f"/>
      <circle id="Ellipse_149" data-name="Ellipse 149" cx="1.453" cy="1.453" r="1.453" transform="translate(0 52.217)" fill="#7c7d7f"/>
      <circle id="Ellipse_150" data-name="Ellipse 150" cx="1.453" cy="1.453" r="1.453" transform="translate(0 78.325)" fill="#7c7d7f"/>
      <circle id="Ellipse_151" data-name="Ellipse 151" cx="1.453" cy="1.453" r="1.453" transform="translate(0 104.434)" fill="#7c7d7f"/>
      <circle id="Ellipse_152" data-name="Ellipse 152" cx="1.453" cy="1.453" r="1.453" transform="translate(0 130.542)" fill="#7c7d7f"/>
    </g>
    <g id="Group_110" data-name="Group 110" transform="translate(936.791 -152.362)">
      <circle id="Ellipse_153" data-name="Ellipse 153" cx="1.453" cy="1.453" r="1.453" fill="#7c7d7f"/>
      <circle id="Ellipse_154" data-name="Ellipse 154" cx="1.453" cy="1.453" r="1.453" transform="translate(0 26.108)" fill="#7c7d7f"/>
      <circle id="Ellipse_155" data-name="Ellipse 155" cx="1.453" cy="1.453" r="1.453" transform="translate(0 52.217)" fill="#7c7d7f"/>
      <circle id="Ellipse_156" data-name="Ellipse 156" cx="1.453" cy="1.453" r="1.453" transform="translate(0 78.325)" fill="#7c7d7f"/>
      <circle id="Ellipse_157" data-name="Ellipse 157" cx="1.453" cy="1.453" r="1.453" transform="translate(0 104.434)" fill="#7c7d7f"/>
      <circle id="Ellipse_158" data-name="Ellipse 158" cx="1.453" cy="1.453" r="1.453" transform="translate(0 130.542)" fill="#7c7d7f"/>
    </g>
  </g>
</svg>
