<svg xmlns="http://www.w3.org/2000/svg" width="1164.81" height="1258.797" viewBox="0 0 1164.81 1258.797">
  <path id="Shape" d="M1724.705,621.611c49.047,48.517,116.9,77.837,157.5,134.955,15.526,21.842,33.4,49.65,29.757,77.441-4.86,37.015-21.712,67.671-7.732,105.635,19.013,51.642,77.954,69.077,127.027,51.428,62.4-22.441,90.679-100.445,136.937-144.186,42.185-39.886,85.882-66.075,144.779-48.371,70.1,21.069,129.869,81.778,207.513,73.6,50.329-5.3,93.173-41.362,119.965-84.3,40.966-65.646,49.99-150.248,23.791-223.055-23.6-65.606-85.9-140.205-157.387-155.6-28.81-6.206-64.42-3.534-93.44-.633-42,4.2-74.013,31.785-110.965,49.506-51.192,24.55-112.807,23.691-164.6,1.359-24.29-10.476-44.76-25.839-69.963-34.4-28.631-9.727-52.788-25.979-73.86-47.841-23.974-24.866-42.035-55.412-68.69-77.384-49.709-40.985-125.469-44.177-181.234-11.912s-90.235,96.095-92.117,160.495S1678.9,576.3,1724.705,621.611Z" transform="matrix(-0.53, 0.848, -0.848, -0.53, 2265.804, -872.165)" fill="#eef1ff" style="mix-blend-mode: multiply;isolation: isolate"/>
</svg>
